<?xml version="1.0" encoding="utf-8"?>
<svg version="1.1" xmlns:xlink="http://www.w3.org/1999/xlink" width="20px" height="15px" xmlns="http://www.w3.org/2000/svg">
  <g transform="matrix(1 0 0 1 -327 -74 )">
    <path d="M 10.9470468431772 14.2096774193548  C 10.4514596062458 14.7365591397849  10.1357773251867 15  10 15  C 9.86422267481331 15  9.54854039375424 14.7365591397849  9.05295315682281 14.2096774193548  C 8.55736591989138 13.6827956989247  8.30957230142566 13.3476702508961  8.30957230142566 13.2043010752688  C 8.30957230142566 12.9749103942652  8.52172437202987 12.7813620071685  8.94602851323829 12.6236559139785  C 9.37033265444671 12.4659498207885  9.72165648336728 12.3870967741935  10 12.3870967741935  C 10.2783435166327 12.3870967741935  10.6296673455533 12.4659498207885  11.0539714867617 12.6236559139785  C 11.4782756279701 12.7813620071685  11.6904276985743 12.9749103942652  11.6904276985743 13.2043010752688  C 11.6904276985743 13.3476702508961  11.4426340801086 13.6827956989247  10.9470468431772 14.2096774193548  Z M 13.7016293279022 11.2795698924731  C 13.1890699253225 11.8172043010753  12.8716904276986 12.0860215053763  12.7494908350305 12.0860215053763  C 12.7359131025119 12.0860215053763  12.6001357773252 11.9964157706093  12.3421588594705 11.8172043010753  C 12.0841819416157 11.6379928315412  11.7396469789545 11.4587813620072  11.3085539714868 11.2795698924731  C 10.877460964019 11.1003584229391  10.4412763068568 11.010752688172  10 11.010752688172  C 9.55872369314325 11.010752688172  9.12253903598099 11.1003584229391  8.69144602851324 11.2795698924731  C 8.26035302104549 11.4587813620072  7.91751527494908 11.6379928315412  7.66293279022403 11.8172043010753  C 7.40835030549898 11.9964157706093  7.27087576374745 12.0860215053763  7.25050916496945 12.0860215053763  C 7.12830957230143 12.0860215053763  6.81093007467753 11.8172043010753  6.29837067209776 11.2795698924731  C 5.78581126951799 10.741935483871  5.5295315682281 10.4086021505376  5.5295315682281 10.2795698924731  C 5.5295315682281 10.1863799283154  5.56347589952478 10.1039426523297  5.63136456211813 10.0322580645161  C 6.16089613034623 9.48028673835126  6.82620502376103 9.04659498207885  7.62729124236253 8.73118279569893  C 8.42837746096402 8.415770609319  9.21928038017651 8.25806451612903  10 8.25806451612903  C 10.7807196198235 8.25806451612903  11.571622539036 8.415770609319  12.3727087576375 8.73118279569893  C 13.173794976239 9.04659498207885  13.8391038696538 9.48028673835126  14.3686354378819 10.0322580645161  C 14.4365241004752 10.1039426523297  14.4704684317719 10.1863799283154  14.4704684317719 10.2795698924731  C 14.4704684317719 10.4086021505376  14.214188730482 10.741935483871  13.7016293279022 11.2795698924731  Z M 16.4663951120163 8.35483870967742  C 15.9572301425662 8.89247311827957  15.6449422946368 9.16129032258065  15.5295315682281 9.16129032258065  C 15.4548540393754 9.16129032258065  15.3767820773931 9.13261648745519  15.2953156822811 9.0752688172043  C 14.3720298710115 8.32258064516129  13.5166327223354 7.76881720430108  12.7291242362525 7.41397849462366  C 11.9416157501697 7.05913978494624  11.0319076714189 6.88172043010753  10 6.88172043010753  C 9.42294636795655 6.88172043010753  8.84419551934827 6.96057347670251  8.26374745417515 7.11827956989247  C 7.68329938900204 7.27598566308244  7.1775288526816 7.46594982078853  6.74643584521385 7.68817204301075  C 6.3153428377461 7.91039426523297  5.93007467752885 8.13261648745519  5.59063136456212 8.35483870967742  C 5.25118805159538 8.57706093189964  4.98302783435166 8.76702508960573  4.78615071283096 8.9247311827957  C 4.58927359131025 9.08243727598566  4.48404616429056 9.16129032258065  4.47046843177189 9.16129032258065  C 4.3550577053632 9.16129032258065  4.04276985743381 8.89247311827957  3.53360488798371 8.35483870967742  C 3.02443991853361 7.81720430107527  2.76985743380855 7.48387096774194  2.76985743380855 7.35483870967742  C 2.76985743380855 7.26881720430107  2.80380176510523 7.18996415770609  2.87169042769857 7.11827956989247  C 3.76782077393075 6.17204301075269  4.85403937542431 5.43727598566308  6.13034623217923 4.91397849462366  C 7.40665308893415 4.39068100358423  8.69653767820774 4.12903225806452  10 4.12903225806452  C 11.3034623217923 4.12903225806452  12.5933469110659 4.39068100358423  13.8696537678208 4.91397849462366  C 15.1459606245757 5.43727598566308  16.2321792260692 6.17204301075269  17.1283095723014 7.11827956989247  C 17.1961982348948 7.18996415770609  17.2301425661915 7.26881720430107  17.2301425661914 7.35483870967742  C 17.2301425661915 7.48387096774194  16.9755600814664 7.81720430107527  16.4663951120163 8.35483870967742  Z M 19.2311608961303 5.44086021505376  C 18.7186014935506 5.97849462365591  18.4046164290563 6.24731182795699  18.2892057026477 6.24731182795699  C 18.214528173795 6.24731182795699  18.1398506449423 6.21505376344086  18.0651731160896 6.1505376344086  C 16.8499660556687 5.02508960573477  15.5889341479973 4.17741935483871  14.2820773930754 3.60752688172043  C 12.9752206381534 3.03763440860215  11.5478615071283 2.75268817204301  10 2.75268817204301  C 8.45213849287169 2.75268817204301  7.02477936184657 3.03763440860215  5.71792260692464 3.60752688172043  C 4.41106585200272 4.17741935483871  3.1500339443313 5.02508960573477  1.93482688391039 6.1505376344086  C 1.86014935505771 6.21505376344086  1.78547182620502 6.24731182795699  1.71079429735234 6.24731182795699  C 1.59538357094365 6.24731182795699  1.28139850644942 5.97849462365591  0.768839103869654 5.44086021505376  C 0.256279701289885 4.90322580645161  0 4.56989247311828  0 4.44086021505376  C 0 4.34767025089606  0.0339443312966735 4.26523297491039  0.10183299389002 4.19354838709677  C 1.37135098438561 2.86021505376344  2.88187372708758 1.82795698924731  4.63340122199593 1.09677419354839  C 6.38492871690428 0.365591397849462  8.17379497623897 0  10 0  C 11.826205023761 0  13.6150712830957 0.365591397849462  15.3665987780041 1.09677419354839  C 17.1181262729124 1.82795698924731  18.6286490156144 2.86021505376344  19.89816700611 4.19354838709677  C 19.9660556687033 4.26523297491039  20 4.34767025089606  20 4.44086021505376  C 20 4.56989247311828  19.7437202987101 4.90322580645161  19.2311608961303 5.44086021505376  Z " fill-rule="nonzero" fill="#ffffff" stroke="none" transform="matrix(1 0 0 1 327 74 )" />
  </g>
</svg>